<svg baseprofile="tiny" height="100%" version="1.2" width="100%" xmlns="http://www.w3.org/2000/svg" xmlns:ev="http://www.w3.org/2001/xml-events" xmlns:xlink="http://www.w3.org/1999/xlink"><defs></defs><image href="https://raw.githubusercontent.com/kritserv/githubstat-display-card/main/code/img/bg_image.jpg" height="500" x="0" y="0"/><rect fill="#171421" height="450" width="700" x="20" y="0" fill-opacity="0.95"></rect><image href="https://raw.githubusercontent.com/kritserv/githubstat-display-card/main/code/img/fg_image.jpg" height="330" x="40" y="20"/><text fill="#2AA1B3" font-family="Arial" font-weight="bold" x="400" y="20">kritserv</text><text fill="#FFFFFF" font-family="Arial" font-weight="normal" x="460" y="20">@</text><text fill="#2AA1B3" font-family="Arial" font-weight="bold" x="478" y="20">test</text><text fill="#FFFFFF" font-family="Arial" font-weight="normal" x="400" y="50">_ _ _ _ _ _ _ _ </text><text fill="#2AA1B3" font-family="Arial" font-weight="bold" x="400" y="80">last year contrib: </text><text fill="#FFFFFF" font-family="Arial" font-weight="normal" x="539" y="80">530</text><text fill="#2AA1B3" font-family="Arial" font-weight="bold" x="400" y="110">info of top10 repos: </text><text fill="#FFFFFF" font-family="Arial" font-weight="normal" x="562" y="110">by stargaze</text><text fill="#2AA1B3" font-family="Arial" font-weight="bold" x="400" y="140">Total Stars: </text><text fill="#FFFFFF" font-family="Arial" font-weight="normal" x="498" y="140">1 ★</text><text fill="#2AA1B3" font-family="Arial" font-weight="bold" x="400" y="170"> Shell: </text><text fill="#FFFFFF" font-family="Arial" font-weight="normal" x="455" y="170"> 42.94</text><text fill="#2AA1B3" font-family="Arial" font-weight="bold" x="400" y="200"> Python: </text><text fill="#FFFFFF" font-family="Arial" font-weight="normal" x="471" y="200"> 27.44</text><text fill="#2AA1B3" font-family="Arial" font-weight="bold" x="400" y="230"> HTML: </text><text fill="#FFFFFF" font-family="Arial" font-weight="normal" x="464" y="230"> 13.71</text><text fill="#2AA1B3" font-family="Arial" font-weight="bold" x="400" y="260"> Jupyter Notebook: </text><text fill="#FFFFFF" font-family="Arial" font-weight="normal" x="557" y="260"> 10.38</text><text fill="#2AA1B3" font-family="Arial" font-weight="bold" x="400" y="290">CSS: </text><text fill="#FFFFFF" font-family="Arial" font-weight="normal" x="447" y="290"> 5.54</text><text fill="#2AA1B3" font-family="Arial" font-weight="bold" x="400" y="320">date: </text><text fill="#FFFFFF" font-family="Arial" font-weight="normal" x="445" y="320">2023-11-15</text><rect fill="#171421" height="20" width="30" x="400" y="350" fill-opacity="0.95"></rect><rect fill="#C01C28" height="20" width="30" x="430" y="350" fill-opacity="0.95"></rect><rect fill="#26A269" height="20" width="30" x="460" y="350" fill-opacity="0.95"></rect><rect fill="#A2734C" height="20" width="30" x="490" y="350" fill-opacity="0.95"></rect><rect fill="#12488B" height="20" width="30" x="520" y="350" fill-opacity="0.95"></rect><rect fill="#A347BA" height="20" width="30" x="550" y="350" fill-opacity="0.95"></rect><rect fill="#2AA1B3" height="20" width="30" x="580" y="350" fill-opacity="0.95"></rect><rect fill="#D0CFCC" height="20" width="30" x="610" y="350" fill-opacity="0.95"></rect><rect fill="#5E5C64" height="20" width="30" x="400" y="380" fill-opacity="0.95"></rect><rect fill="#F66151" height="20" width="30" x="430" y="380" fill-opacity="0.95"></rect><rect fill="#33D17A" height="20" width="30" x="460" y="380" fill-opacity="0.95"></rect><rect fill="#E9AD0C" height="20" width="30" x="490" y="380" fill-opacity="0.95"></rect><rect fill="#2A7BDE" height="20" width="30" x="520" y="380" fill-opacity="0.95"></rect><rect fill="#C061CB" height="20" width="30" x="550" y="380" fill-opacity="0.95"></rect><rect fill="#33C7DE" height="20" width="30" x="580" y="380" fill-opacity="0.95"></rect><rect fill="#FFFFFF" height="20" width="30" x="610" y="380" fill-opacity="0.95"></rect><image href="https://raw.githubusercontent.com/kritserv/githubstat-display-card/main/code/img/fg_image.jpg" height="330" x="40" y="20"/><text fill="#2AA1B3" font-family="Arial" font-weight="bold" x="20" y="430">kritserv</text><text fill="#FFFFFF" font-family="Arial" font-weight="normal" x="80" y="430">@</text><text fill="#2AA1B3" font-family="Arial" font-weight="bold" x="98" y="430">test:</text><text fill="#FFFFFF" font-family="Arial" font-weight="bold" x="132" y="430">~$</text><text class="blink" fill="#2AA1B3" font-family="Arial" font-weight="bold" x="160" y="430">|</text><style>.blink {animation: blink 1s steps(2, start) infinite;} @keyframes blink { to { visibility: hidden;}}</style></svg>