<svg baseprofile="tiny" height="100%" version="1.2" width="100%" xmlns="http://www.w3.org/2000/svg" xmlns:ev="http://www.w3.org/2001/xml-events" xmlns:xlink="http://www.w3.org/1999/xlink"><defs></defs><rect fill="#002B36" height="100%" width="100%" x="0" y="0"></rect><text fill="#073642" font-family="arial" font-weight="normal" x="10" y="20">████████████████████████████</text><text fill="#073642" font-family="arial" font-weight="normal" x="10" y="39">████████████████████████████</text><text fill="#073642" font-family="arial" font-weight="normal" x="10" y="58">████████████████████████████</text><text fill="#073642" font-family="arial" font-weight="normal" x="10" y="77">████████████████████████████</text><text fill="#073642" font-family="arial" font-weight="normal" x="10" y="96">████████████████████████████</text><text fill="#073642" font-family="arial" font-weight="normal" x="10" y="115">████████████████████████████</text><text fill="#073642" font-family="arial" font-weight="normal" x="10" y="134">████████████████████████████</text><text fill="#073642" font-family="arial" font-weight="normal" x="10" y="153">████████████████████████████</text><text fill="#073642" font-family="arial" font-weight="normal" x="10" y="172">████████████████████████████</text><text fill="#073642" font-family="arial" font-weight="normal" x="10" y="191">████████████████████████████</text><text fill="#073642" font-family="arial" font-weight="normal" x="10" y="210">████████████████████████████</text><text fill="#073642" font-family="arial" font-weight="normal" x="10" y="229">████████████████████████████</text><text fill="#073642" font-family="arial" font-weight="normal" x="10" y="248">████████████████████████████</text><text fill="#073642" font-family="arial" font-weight="normal" x="10" y="267">████████████████████████████</text><text fill="#073642" font-family="arial" font-weight="normal" x="10" y="286">████████████████████████████</text><text fill="#073642" font-family="arial" font-weight="normal" x="10" y="305">████████████████████████████</text><text fill="#073642" font-family="arial" font-weight="normal" x="10" y="324">████████████████████████████</text><text fill="#FDF6E3" font-family="arial" font-weight="normal" x="56" y="39">█</text><text fill="#002B36" font-family="arial" font-weight="normal" x="44" y="58">████</text><text fill="#002B36" font-family="arial" font-weight="normal" x="44" y="77">███████</text><text fill="#002B36" font-family="arial" font-weight="normal" x="20" y="96">█</text><text fill="#FDF6E3" font-family="arial" font-weight="normal" x="32" y="96">██████████</text><text fill="#002B36" font-family="arial" font-weight="normal" x="146" y="96">██</text><text fill="#FDF6E3" font-family="arial" font-weight="normal" x="170" y="115">█</text><text fill="#002B36" font-family="arial" font-weight="normal" x="20" y="115">███████</text><text fill="#FDF6E3" font-family="arial" font-weight="normal" x="98" y="115">███</text><text fill="#002B36" font-family="arial" font-weight="normal" x="20" y="134">█████</text><text fill="#FDF6E3" font-family="arial" font-weight="normal" x="74" y="134">██</text><text fill="#002B36" font-family="arial" font-weight="normal" x="98" y="134">██</text><text fill="#FDF6E3" font-family="arial" font-weight="normal" x="121" y="134">█</text><text fill="#002B36" font-family="arial" font-weight="normal" x="32" y="153">███</text><text fill="#FDF6E3" font-family="arial" font-weight="normal" x="66" y="153">██████</text><text fill="#002B36" font-family="arial" font-weight="normal" x="32" y="172">███</text><text fill="#FDF6E3" font-family="arial" font-weight="normal" x="66" y="172">███</text><text fill="#002B36" font-family="arial" font-weight="normal" x="98" y="172">██</text><text fill="#FDF6E3" font-family="arial" font-weight="normal" x="121" y="172">██</text><text fill="#002B36" font-family="arial" font-weight="normal" x="44" y="191">███</text><text fill="#FDF6E3" font-family="arial" font-weight="normal" x="78" y="191">███████</text><text fill="#002B36" font-family="arial" font-weight="normal" x="56" y="191">███</text><text fill="#FDF6E3" font-family="arial" font-weight="normal" x="90" y="191">████</text><text fill="#002B36" font-family="arial" font-weight="normal" x="134" y="191">██</text><text fill="#FDF6E3" font-family="arial" font-weight="normal" x="157" y="191">█</text><text fill="#002B36" font-family="arial" font-weight="normal" x="68" y="210">█████</text><text fill="#FDF6E3" font-family="arial" font-weight="normal" x="124" y="210">█████</text><text fill="#002B36" font-family="arial" font-weight="normal" x="180" y="210">█</text><text fill="#002B36" font-family="arial" font-weight="normal" x="92" y="229">██████</text><text fill="#FDF6E3" font-family="arial" font-weight="normal" x="160" y="229">█████</text><text fill="#002B36" font-family="arial" font-weight="normal" x="217" y="229">██</text><text fill="#002B36" font-family="arial" font-weight="normal" x="248" y="229">███</text><text fill="#002B36" font-family="arial" font-weight="normal" x="128" y="248">████████████████</text><text fill="#002B36" font-family="arial" font-weight="normal" x="200" y="267">██████</text><text fill="#2AA198" font-family="Arial" font-weight="bold" x="350" y="20">kritserv</text><text fill="#FDF6E3" font-family="Arial" font-weight="normal" x="410" y="20">@</text><text fill="#2AA198" font-family="Arial" font-weight="bold" x="428" y="20">githubstat</text><text fill="#FDF6E3" font-family="Arial" font-weight="normal" x="350" y="50">_ _ _ _ _ _ _ _ _ _ _ </text><text fill="#2AA198" font-family="Arial" font-weight="bold" x="350" y="80">last year contrib: </text><text fill="#FDF6E3" font-family="Arial" font-weight="normal" x="489" y="80">532</text><text fill="#2AA198" font-family="Arial" font-weight="bold" x="350" y="110">info of top10 repos: </text><text fill="#FDF6E3" font-family="Arial" font-weight="normal" x="512" y="110">by stargaze</text><text fill="#2AA198" font-family="Arial" font-weight="bold" x="350" y="140">Total Stars: </text><text fill="#FDF6E3" font-family="Arial" font-weight="normal" x="448" y="140">1 ★</text><text fill="#2AA198" font-family="Arial" font-weight="bold" x="350" y="170"> Shell: </text><text fill="#FDF6E3" font-family="Arial" font-weight="normal" x="405" y="170"> 43.22</text><text fill="#2AA198" font-family="Arial" font-weight="bold" x="350" y="200"> Python: </text><text fill="#FDF6E3" font-family="Arial" font-weight="normal" x="421" y="200"> 37.53</text><text fill="#2AA198" font-family="Arial" font-weight="bold" x="350" y="230"> HTML: </text><text fill="#FDF6E3" font-family="Arial" font-weight="normal" x="414" y="230"> 13.71</text><text fill="#2AA198" font-family="Arial" font-weight="bold" x="350" y="260">CSS: </text><text fill="#FDF6E3" font-family="Arial" font-weight="normal" x="397" y="260"> 5.54</text><text fill="#2AA198" font-family="Arial" font-weight="bold" x="350" y="290">date: </text><text fill="#FDF6E3" font-family="Arial" font-weight="normal" x="395" y="290">2023-11-11</text><rect fill="#002B36" height="20" width="30" x="350" y="320"></rect><rect fill="#DC322F" height="20" width="30" x="380" y="320"></rect><rect fill="#859900" height="20" width="30" x="410" y="320"></rect><rect fill="#B58900" height="20" width="30" x="440" y="320"></rect><rect fill="#268BD2" height="20" width="30" x="470" y="320"></rect><rect fill="#D33682" height="20" width="30" x="500" y="320"></rect><rect fill="#2AA198" height="20" width="30" x="530" y="320"></rect><rect fill="#EEE8D5" height="20" width="30" x="560" y="320"></rect><rect fill="#073642" height="20" width="30" x="350" y="350"></rect><rect fill="#CB4B16" height="20" width="30" x="380" y="350"></rect><rect fill="#586E75" height="20" width="30" x="410" y="350"></rect><rect fill="#657B83" height="20" width="30" x="440" y="350"></rect><rect fill="#839496" height="20" width="30" x="470" y="350"></rect><rect fill="#6C71C4" height="20" width="30" x="500" y="350"></rect><rect fill="#93A1A1" height="20" width="30" x="530" y="350"></rect><rect fill="#FDF6E3" height="20" width="30" x="560" y="350"></rect><text fill="#2AA198" font-family="Arial" font-weight="bold" x="10" y="400">kritserv</text><text fill="#FDF6E3" font-family="Arial" font-weight="normal" x="70" y="400">@</text><text fill="#2AA198" font-family="Arial" font-weight="bold" x="88" y="400">githubstat:</text><text fill="#FDF6E3" font-family="Arial" font-weight="bold" x="171" y="400">~$</text><text class="blink" fill="#2AA198" font-family="arial" font-weight="bold" x="199" y="400">|</text><style>.blink {animation: blink 1s steps(2, start) infinite;} 
		@keyframes blink { to { visibility: hidden;}}</style></svg>